<?xml version="1.0" encoding="UTF-8" standalone="no"?>
<!-- Created with Inkscape (http://www.inkscape.org/) -->

<svg
   xmlns:dc="http://purl.org/dc/elements/1.1/"
   xmlns:cc="http://creativecommons.org/ns#"
   xmlns:rdf="http://www.w3.org/1999/02/22-rdf-syntax-ns#"
   xmlns:svg="http://www.w3.org/2000/svg"
   xmlns="http://www.w3.org/2000/svg"
   xmlns:sodipodi="http://sodipodi.sourceforge.net/DTD/sodipodi-0.dtd"
   xmlns:inkscape="http://www.inkscape.org/namespaces/inkscape"
   width="71.620491mm"
   height="112.9515mm"
   viewBox="0 0 71.620491 112.9515"
   version="1.1"
   id="svg76"
   inkscape:version="0.92.4 (5da689c313, 2019-01-14)"
   sodipodi:docname="light-bulb.svg">
  <defs
     id="defs70" />
  <sodipodi:namedview
     id="base"
     pagecolor="#ffffff"
     bordercolor="#666666"
     borderopacity="1.0"
     inkscape:pageopacity="0.0"
     inkscape:pageshadow="2"
     inkscape:zoom="1.1826172"
     inkscape:cx="138.17427"
     inkscape:cy="192.90331"
     inkscape:document-units="mm"
     inkscape:current-layer="layer1"
     showgrid="false"
     fit-margin-top="0"
     fit-margin-left="0"
     fit-margin-right="0"
     fit-margin-bottom="0"
     inkscape:window-width="1920"
     inkscape:window-height="1029"
     inkscape:window-x="0"
     inkscape:window-y="27"
     inkscape:window-maximized="1" />
  <metadata
     id="metadata73">
    <rdf:RDF>
      <cc:Work
         rdf:about="">
        <dc:format>image/svg+xml</dc:format>
        <dc:type
           rdf:resource="http://purl.org/dc/dcmitype/StillImage" />
        <dc:title></dc:title>
      </cc:Work>
    </rdf:RDF>
  </metadata>
  <g
     inkscape:label="Layer 1"
     inkscape:groupmode="layer"
     id="layer1"
     transform="translate(-68.446514,-86.823838)">
    <path
       id="path1177-5"
       style="display:inline;fill:#7559cc;fill-opacity:1;stroke:#ffffff;stroke-width:4;stroke-miterlimit:4;stroke-dasharray:none;stroke-opacity:1;paint-order:markers stroke fill"
       d="m 86.916156,158.1526 c -0.494858,-1.67023 -2.654701,-5.6976 -4.34721,-8.10603 -6.316598,-8.98853 -8.660604,-13.09252 -10.280351,-17.99925 -1.580762,-4.7886 -1.855829,-6.56178 -1.841673,-11.87184 0.01151,-4.33102 0.07056,-4.93519 0.710654,-7.27629 0.891291,-3.25975 3.036175,-7.66498 5.002796,-10.27486 3.060854,-4.062037 8.285223,-8.292049 12.840992,-10.396949 2.498814,-1.154518 5.881856,-2.27796 8.62309,-2.863542 3.035566,-0.648457 9.980556,-0.649022 13.020726,-7.25e-4 7.84696,1.672455 15.14754,5.932972 20.04238,11.696446 3.30208,3.88804 5.4239,7.9135 6.70197,12.71471 0.56442,2.12031 0.65401,3.00259 0.67598,6.65686 0.027,4.49025 -0.2491,6.41241 -1.53445,10.68258 -1.43188,4.75696 -3.52432,8.65848 -8.95136,16.69047 -3.39154,5.01946 -5.09826,8.12459 -5.68816,10.34876 l -0.28777,1.08506 H 104.42071 87.237642 l -0.321486,-1.08506 z m -0.626292,10.26636 c -0.866092,-0.25918 -2.091106,-1.36021 -2.602508,-2.33912 -0.965123,-1.84739 -0.03908,-4.67931 1.883503,-5.75986 l 1.017202,-0.5717 h 17.605199 17.60518 l 1.11176,0.58791 c 3.34014,1.76631 2.8668,6.84892 -0.75041,8.05784 -1.04791,0.35023 -34.704705,0.37362 -35.869926,0.0249 z m -0.154288,9.42539 c -0.815569,-0.32425 -1.985111,-1.43163 -2.44822,-2.3181 -0.198093,-0.37918 -0.360168,-1.21782 -0.360168,-1.86366 0,-0.64584 0.162075,-1.48448 0.360168,-1.86367 0.483597,-0.92566 1.648203,-2.00002 2.528668,-2.33268 0.482062,-0.18213 6.42437,-0.27155 18.046456,-0.27155 11.62208,0 17.56438,0.0894 18.04645,0.27155 1.63598,0.61812 2.88883,2.43803 2.88883,4.19635 0,1.75832 -1.25285,3.57822 -2.88883,4.19634 -0.95504,0.36084 -35.263884,0.34702 -36.173354,-0.0145 z m -0.127655,9.35282 c -1.073311,-0.5041 -1.513673,-0.90031 -2.136844,-1.92257 -1.320146,-2.16556 -0.116141,-5.43208 2.344947,-6.36195 0.482062,-0.18213 6.42437,-0.27155 18.046456,-0.27155 11.62208,0 17.56438,0.0894 18.04645,0.27155 1.68622,0.6371 2.88883,2.43904 2.88883,4.32848 0,1.68396 -1.25241,3.44593 -2.88883,4.06422 -0.48317,0.18254 -6.42424,0.26828 -18.12691,0.26155 -14.426329,-0.008 -17.539363,-0.0717 -18.174099,-0.36973 z m 15.496359,10.08647 c -0.7447,-0.26796 -2.392134,-1.14223 -3.660965,-1.94283 -1.397378,-0.88173 -2.771513,-1.54244 -3.485177,-1.67576 -3.413589,-0.63774 -4.587749,-2.78478 -2.576815,-4.71191 0,0 0.902114,-0.66673 2.507321,-0.73798 1.605208,-0.0712 9.535626,-0.0716 9.535626,-0.0716 8.13308,-0.0517 11.47249,0.011 11.98957,0.22519 1.33628,0.55351 2.08907,2.30177 1.57169,3.65006 -0.23319,0.60765 -1.61069,1.3429 -3.09971,1.65445 -0.8202,0.17163 -2.23353,0.83398 -3.6526,1.71178 -3.91813,2.42365 -6.29557,2.91811 -9.12894,1.89865 z"
       inkscape:connector-curvature="0" />
  </g>
</svg>
